<svg width="123" height="114" viewBox="0 0 123 114" fill="none" xmlns="http://www.w3.org/2000/svg">
<path d="M21.8999 27.455V86.045C21.8999 93.795 25.3099 96.74 30.7349 96.74C36.1599 96.74 39.5699 93.795 39.5699 86.045V27.455C39.5699 19.705 36.1599 16.76 30.7349 16.76C25.3099 16.76 21.8999 19.705 21.8999 27.455ZM4.84992 84.96V28.54C4.84992 11.18 13.9949 1.26 30.7349 1.26C47.4749 1.26 56.6199 11.18 56.6199 28.54V84.96C56.6199 102.32 47.4749 112.24 30.7349 112.24C13.9949 112.24 4.84992 102.32 4.84992 84.96ZM101.49 29.16C101.49 19.395 98.08 16.76 92.655 16.76C87.23 16.76 83.82 19.705 83.82 27.455V39.08H67.7V28.54C67.7 11.18 76.38 1.26 93.12 1.26C109.86 1.26 118.54 11.18 118.54 28.54C118.54 62.64 84.595 75.35 84.595 93.175C84.595 93.95 84.595 94.725 84.75 95.5H116.99V111H67.7V97.67C67.7 65.74 101.49 60.47 101.49 29.16Z" fill="url(#paint0_linear_29_95)"/>
<mask id="mask0_29_95" style="mask-type:alpha" maskUnits="userSpaceOnUse" x="3" y="0" width="117" height="114">
<mask id="path-2-outside-1_29_95" maskUnits="userSpaceOnUse" x="3" y="0" width="117" height="114" fill="black">
<rect fill="white" x="3" width="117" height="114"/>
<path d="M21.8999 27.455V86.045C21.8999 93.795 25.3099 96.74 30.7349 96.74C36.1599 96.74 39.5699 93.795 39.5699 86.045V27.455C39.5699 19.705 36.1599 16.76 30.7349 16.76C25.3099 16.76 21.8999 19.705 21.8999 27.455ZM4.84992 84.96V28.54C4.84992 11.18 13.9949 1.26 30.7349 1.26C47.4749 1.26 56.6199 11.18 56.6199 28.54V84.96C56.6199 102.32 47.4749 112.24 30.7349 112.24C13.9949 112.24 4.84992 102.32 4.84992 84.96ZM101.49 29.16C101.49 19.395 98.08 16.76 92.655 16.76C87.23 16.76 83.82 19.705 83.82 27.455V39.08H67.7V28.54C67.7 11.18 76.38 1.26 93.12 1.26C109.86 1.26 118.54 11.18 118.54 28.54C118.54 62.64 84.595 75.35 84.595 93.175C84.595 93.95 84.595 94.725 84.75 95.5H116.99V111H67.7V97.67C67.7 65.74 101.49 60.47 101.49 29.16Z"/>
</mask>
<path d="M21.8999 27.455V86.045C21.8999 93.795 25.3099 96.74 30.7349 96.74C36.1599 96.74 39.5699 93.795 39.5699 86.045V27.455C39.5699 19.705 36.1599 16.76 30.7349 16.76C25.3099 16.76 21.8999 19.705 21.8999 27.455ZM4.84992 84.96V28.54C4.84992 11.18 13.9949 1.26 30.7349 1.26C47.4749 1.26 56.6199 11.18 56.6199 28.54V84.96C56.6199 102.32 47.4749 112.24 30.7349 112.24C13.9949 112.24 4.84992 102.32 4.84992 84.96ZM101.49 29.16C101.49 19.395 98.08 16.76 92.655 16.76C87.23 16.76 83.82 19.705 83.82 27.455V39.08H67.7V28.54C67.7 11.18 76.38 1.26 93.12 1.26C109.86 1.26 118.54 11.18 118.54 28.54C118.54 62.64 84.595 75.35 84.595 93.175C84.595 93.95 84.595 94.725 84.75 95.5H116.99V111H67.7V97.67C67.7 65.74 101.49 60.47 101.49 29.16Z" fill="#D9D9D9"/>
<path d="M20.8999 27.455V86.045H22.8999V27.455H20.8999ZM20.8999 86.045C20.8999 90.0442 21.7769 93.004 23.5389 94.9668C25.3204 96.9512 27.8452 97.74 30.7349 97.74V95.74C28.1996 95.74 26.3069 95.0563 25.0272 93.6307C23.728 92.1835 22.8999 89.7958 22.8999 86.045H20.8999ZM30.7349 97.74C33.6246 97.74 36.1494 96.9512 37.9309 94.9668C39.693 93.004 40.5699 90.0442 40.5699 86.045H38.5699C38.5699 89.7958 37.7419 92.1835 36.4427 93.6307C35.1629 95.0563 33.2702 95.74 30.7349 95.74V97.74ZM40.5699 86.045V27.455H38.5699V86.045H40.5699ZM40.5699 27.455C40.5699 23.4558 39.693 20.496 37.9309 18.5332C36.1494 16.5488 33.6246 15.76 30.7349 15.76V17.76C33.2702 17.76 35.1629 18.4437 36.4427 19.8693C37.7419 21.3165 38.5699 23.7042 38.5699 27.455H40.5699ZM30.7349 15.76C27.8452 15.76 25.3204 16.5488 23.5389 18.5332C21.7769 20.496 20.8999 23.4558 20.8999 27.455H22.8999C22.8999 23.7042 23.728 21.3165 25.0272 19.8693C26.3069 18.4437 28.1996 17.76 30.7349 17.76V15.76ZM5.84992 84.96V28.54H3.84992V84.96H5.84992ZM5.84992 28.54C5.84992 20.0269 8.09108 13.4846 12.2429 9.07555C16.386 4.6758 22.5641 2.26 30.7349 2.26V0.259999C22.1657 0.259999 15.4013 2.8042 10.7869 7.70444C6.18127 12.5954 3.84992 19.6931 3.84992 28.54H5.84992ZM30.7349 2.26C38.9057 2.26 45.0838 4.6758 49.2269 9.07555C53.3788 13.4846 55.6199 20.0269 55.6199 28.54H57.6199C57.6199 19.6931 55.2886 12.5954 50.6829 7.70444C46.0686 2.8042 39.3041 0.259999 30.7349 0.259999V2.26ZM55.6199 28.54V84.96H57.6199V28.54H55.6199ZM55.6199 84.96C55.6199 93.4731 53.3788 100.015 49.2269 104.424C45.0838 108.824 38.9057 111.24 30.7349 111.24V113.24C39.3041 113.24 46.0686 110.696 50.6829 105.796C55.2886 100.905 57.6199 93.8069 57.6199 84.96H55.6199ZM30.7349 111.24C22.5641 111.24 16.386 108.824 12.2429 104.424C8.09108 100.015 5.84992 93.4731 5.84992 84.96H3.84992C3.84992 93.8069 6.18127 100.905 10.7869 105.796C15.4013 110.696 22.1657 113.24 30.7349 113.24V111.24ZM83.82 39.08V40.08H84.82V39.08H83.82ZM67.7 39.08H66.7V40.08H67.7V39.08ZM84.75 95.5L83.7694 95.6961L83.9302 96.5H84.75V95.5ZM116.99 95.5H117.99V94.5H116.99V95.5ZM116.99 111V112H117.99V111H116.99ZM67.7 111H66.7V112H67.7V111ZM102.49 29.16C102.49 24.2034 101.633 20.8163 99.8823 18.6666C98.0858 16.4609 95.5229 15.76 92.655 15.76V17.76C95.2121 17.76 97.0667 18.3766 98.3315 19.9296C99.642 21.5387 100.49 24.3516 100.49 29.16H102.49ZM92.655 15.76C89.7653 15.76 87.2405 16.5488 85.459 18.5332C83.6969 20.496 82.82 23.4558 82.82 27.455H84.82C84.82 23.7042 85.6481 21.3165 86.9473 19.8693C88.227 18.4437 90.1197 17.76 92.655 17.76V15.76ZM82.82 27.455V39.08H84.82V27.455H82.82ZM83.82 38.08H67.7V40.08H83.82V38.08ZM68.7 39.08V28.54H66.7V39.08H68.7ZM68.7 28.54C68.7 20.0141 70.8315 13.471 74.8697 9.06572C78.8946 4.67484 84.9502 2.26 93.12 2.26V0.259999C84.5498 0.259999 77.8954 2.80516 73.3953 7.71427C68.9085 12.609 66.7 19.7059 66.7 28.54H68.7ZM93.12 2.26C101.29 2.26 107.345 4.67484 111.37 9.06572C115.408 13.471 117.54 20.0141 117.54 28.54H119.54C119.54 19.7059 117.332 12.609 112.845 7.71427C108.345 2.80516 101.69 0.259999 93.12 0.259999V2.26ZM117.54 28.54C117.54 45.2139 109.26 56.6809 100.816 66.3009C96.6276 71.0726 92.311 75.4806 89.0997 79.7501C85.8735 84.0395 83.595 88.3923 83.595 93.175H85.595C85.595 89.0452 87.5596 85.1249 90.6981 80.9523C93.8515 76.7597 98.0211 72.5168 102.319 67.6203C110.847 57.9041 119.54 45.9661 119.54 28.54H117.54ZM83.595 93.175C83.595 93.9345 83.5919 94.8083 83.7694 95.6961L85.7306 95.3039C85.5981 94.6417 85.595 93.9655 85.595 93.175H83.595ZM84.75 96.5H116.99V94.5H84.75V96.5ZM115.99 95.5V111H117.99V95.5H115.99ZM116.99 110H67.7V112H116.99V110ZM68.7 111V97.67H66.7V111H68.7ZM68.7 97.67C68.7 82.1308 76.8764 73.0898 85.3324 63.8579C93.763 54.6539 102.49 45.246 102.49 29.16H100.49C100.49 44.384 92.322 53.2661 83.8576 62.5071C75.4186 71.7202 66.7 81.2792 66.7 97.67H68.7Z" fill="url(#paint1_linear_29_95)" mask="url(#path-2-outside-1_29_95)"/>
</mask>
<g mask="url(#mask0_29_95)">
<g filter="url(#filter0_f_29_95)">
<ellipse cx="87.3334" cy="29.3215" rx="41.5" ry="46.2814" transform="rotate(-27.9017 87.3334 29.3215)" fill="#8503FF"/>
</g>
<g filter="url(#filter1_f_29_95)">
<ellipse cx="4.79263" cy="58.769" rx="50.1755" ry="19.9742" transform="rotate(-27.9017 4.79263 58.769)" fill="#B25398"/>
</g>
</g>
<defs>
<filter id="filter0_f_29_95" x="-5.26633" y="-65.9668" width="185.199" height="190.576" filterUnits="userSpaceOnUse" color-interpolation-filters="sRGB">
<feFlood flood-opacity="0" result="BackgroundImageFix"/>
<feBlend mode="normal" in="SourceGraphic" in2="BackgroundImageFix" result="shape"/>
<feGaussianBlur stdDeviation="25" result="effect1_foregroundBlur_29_95"/>
</filter>
<filter id="filter1_f_29_95" x="-70.5337" y="-0.60791" width="150.653" height="118.754" filterUnits="userSpaceOnUse" color-interpolation-filters="sRGB">
<feFlood flood-opacity="0" result="BackgroundImageFix"/>
<feBlend mode="normal" in="SourceGraphic" in2="BackgroundImageFix" result="shape"/>
<feGaussianBlur stdDeviation="15" result="effect1_foregroundBlur_29_95"/>
</filter>
<linearGradient id="paint0_linear_29_95" x1="61" y1="-3" x2="61" y2="111" gradientUnits="userSpaceOnUse">
<stop stop-color="#1E1E1E"/>
<stop offset="1" stop-opacity="0.1"/>
</linearGradient>
<linearGradient id="paint1_linear_29_95" x1="61.5" y1="-5.22959" x2="61.5" y2="111" gradientUnits="userSpaceOnUse">
<stop/>
<stop offset="1" stop-color="#666666" stop-opacity="0"/>
</linearGradient>
</defs>
</svg>
