<svg width="123" height="114" viewBox="0 0 123 114" fill="none" xmlns="http://www.w3.org/2000/svg">
<path d="M21.8999 27.455V86.045C21.8999 93.795 25.3099 96.74 30.7349 96.74C36.1599 96.74 39.5699 93.795 39.5699 86.045V27.455C39.5699 19.705 36.1599 16.76 30.7349 16.76C25.3099 16.76 21.8999 19.705 21.8999 27.455ZM4.84992 84.96V28.54C4.84992 11.18 13.9949 1.26 30.7349 1.26C47.4749 1.26 56.6199 11.18 56.6199 28.54V84.96C56.6199 102.32 47.4749 112.24 30.7349 112.24C13.9949 112.24 4.84992 102.32 4.84992 84.96ZM100.56 35.205V29.16C100.56 19.395 97.15 16.76 91.725 16.76C86.3 16.76 82.89 19.705 82.89 27.455V34.43H66.77V28.54C66.77 11.18 75.45 1.26 92.19 1.26C108.93 1.26 117.61 11.18 117.61 28.54V31.33C117.61 42.955 113.89 50.24 105.675 53.65C114.2 57.37 117.61 65.43 117.61 76.435V84.96C117.61 102.32 108.93 112.24 92.19 112.24C75.45 112.24 66.77 102.32 66.77 84.96V75.97H82.89V86.045C82.89 93.795 86.3 96.74 91.725 96.74C97.15 96.74 100.56 94.105 100.56 84.495V75.97C100.56 65.895 97.15 62.175 89.4 62.175H83.665V46.675H90.33C96.685 46.675 100.56 43.885 100.56 35.205Z" fill="url(#paint0_linear_29_101)"/>
<mask id="mask0_29_101" style="mask-type:alpha" maskUnits="userSpaceOnUse" x="3" y="0" width="116" height="114">
<mask id="path-2-outside-1_29_101" maskUnits="userSpaceOnUse" x="3" y="0" width="116" height="114" fill="black">
<rect fill="white" x="3" width="116" height="114"/>
<path d="M21.8999 27.455V86.045C21.8999 93.795 25.3099 96.74 30.7349 96.74C36.1599 96.74 39.5699 93.795 39.5699 86.045V27.455C39.5699 19.705 36.1599 16.76 30.7349 16.76C25.3099 16.76 21.8999 19.705 21.8999 27.455ZM4.84992 84.96V28.54C4.84992 11.18 13.9949 1.26 30.7349 1.26C47.4749 1.26 56.6199 11.18 56.6199 28.54V84.96C56.6199 102.32 47.4749 112.24 30.7349 112.24C13.9949 112.24 4.84992 102.32 4.84992 84.96ZM100.56 35.205V29.16C100.56 19.395 97.15 16.76 91.725 16.76C86.3 16.76 82.89 19.705 82.89 27.455V34.43H66.77V28.54C66.77 11.18 75.45 1.26 92.19 1.26C108.93 1.26 117.61 11.18 117.61 28.54V31.33C117.61 42.955 113.89 50.24 105.675 53.65C114.2 57.37 117.61 65.43 117.61 76.435V84.96C117.61 102.32 108.93 112.24 92.19 112.24C75.45 112.24 66.77 102.32 66.77 84.96V75.97H82.89V86.045C82.89 93.795 86.3 96.74 91.725 96.74C97.15 96.74 100.56 94.105 100.56 84.495V75.97C100.56 65.895 97.15 62.175 89.4 62.175H83.665V46.675H90.33C96.685 46.675 100.56 43.885 100.56 35.205Z"/>
</mask>
<path d="M21.8999 27.455V86.045C21.8999 93.795 25.3099 96.74 30.7349 96.74C36.1599 96.74 39.5699 93.795 39.5699 86.045V27.455C39.5699 19.705 36.1599 16.76 30.7349 16.76C25.3099 16.76 21.8999 19.705 21.8999 27.455ZM4.84992 84.96V28.54C4.84992 11.18 13.9949 1.26 30.7349 1.26C47.4749 1.26 56.6199 11.18 56.6199 28.54V84.96C56.6199 102.32 47.4749 112.24 30.7349 112.24C13.9949 112.24 4.84992 102.32 4.84992 84.96ZM100.56 35.205V29.16C100.56 19.395 97.15 16.76 91.725 16.76C86.3 16.76 82.89 19.705 82.89 27.455V34.43H66.77V28.54C66.77 11.18 75.45 1.26 92.19 1.26C108.93 1.26 117.61 11.18 117.61 28.54V31.33C117.61 42.955 113.89 50.24 105.675 53.65C114.2 57.37 117.61 65.43 117.61 76.435V84.96C117.61 102.32 108.93 112.24 92.19 112.24C75.45 112.24 66.77 102.32 66.77 84.96V75.97H82.89V86.045C82.89 93.795 86.3 96.74 91.725 96.74C97.15 96.74 100.56 94.105 100.56 84.495V75.97C100.56 65.895 97.15 62.175 89.4 62.175H83.665V46.675H90.33C96.685 46.675 100.56 43.885 100.56 35.205Z" fill="#D9D9D9"/>
<path d="M20.8999 27.455V86.045H22.8999V27.455H20.8999ZM20.8999 86.045C20.8999 90.0442 21.7769 93.004 23.5389 94.9668C25.3204 96.9512 27.8452 97.74 30.7349 97.74V95.74C28.1996 95.74 26.3069 95.0563 25.0272 93.6307C23.728 92.1835 22.8999 89.7958 22.8999 86.045H20.8999ZM30.7349 97.74C33.6246 97.74 36.1494 96.9512 37.9309 94.9668C39.693 93.004 40.5699 90.0442 40.5699 86.045H38.5699C38.5699 89.7958 37.7419 92.1835 36.4427 93.6307C35.1629 95.0563 33.2702 95.74 30.7349 95.74V97.74ZM40.5699 86.045V27.455H38.5699V86.045H40.5699ZM40.5699 27.455C40.5699 23.4558 39.693 20.496 37.9309 18.5332C36.1494 16.5488 33.6246 15.76 30.7349 15.76V17.76C33.2702 17.76 35.1629 18.4437 36.4427 19.8693C37.7419 21.3165 38.5699 23.7042 38.5699 27.455H40.5699ZM30.7349 15.76C27.8452 15.76 25.3204 16.5488 23.5389 18.5332C21.7769 20.496 20.8999 23.4558 20.8999 27.455H22.8999C22.8999 23.7042 23.728 21.3165 25.0272 19.8693C26.3069 18.4437 28.1996 17.76 30.7349 17.76V15.76ZM5.84992 84.96V28.54H3.84992V84.96H5.84992ZM5.84992 28.54C5.84992 20.0269 8.09108 13.4846 12.2429 9.07555C16.386 4.6758 22.5641 2.26 30.7349 2.26V0.259999C22.1657 0.259999 15.4013 2.8042 10.7869 7.70444C6.18127 12.5954 3.84992 19.6931 3.84992 28.54H5.84992ZM30.7349 2.26C38.9057 2.26 45.0838 4.6758 49.2269 9.07555C53.3788 13.4846 55.6199 20.0269 55.6199 28.54H57.6199C57.6199 19.6931 55.2886 12.5954 50.6829 7.70444C46.0686 2.8042 39.3041 0.259999 30.7349 0.259999V2.26ZM55.6199 28.54V84.96H57.6199V28.54H55.6199ZM55.6199 84.96C55.6199 93.4731 53.3788 100.015 49.2269 104.424C45.0838 108.824 38.9057 111.24 30.7349 111.24V113.24C39.3041 113.24 46.0686 110.696 50.6829 105.796C55.2886 100.905 57.6199 93.8069 57.6199 84.96H55.6199ZM30.7349 111.24C22.5641 111.24 16.386 108.824 12.2429 104.424C8.09108 100.015 5.84992 93.4731 5.84992 84.96H3.84992C3.84992 93.8069 6.18127 100.905 10.7869 105.796C15.4013 110.696 22.1657 113.24 30.7349 113.24V111.24ZM82.89 34.43V35.43H83.89V34.43H82.89ZM66.77 34.43H65.77V35.43H66.77V34.43ZM105.675 53.65L105.292 52.7264L103.122 53.627L105.275 54.5665L105.675 53.65ZM66.77 75.97V74.97H65.77V75.97H66.77ZM82.89 75.97H83.89V74.97H82.89V75.97ZM83.665 62.175H82.665V63.175H83.665V62.175ZM83.665 46.675V45.675H82.665V46.675H83.665ZM101.56 35.205V29.16H99.56V35.205H101.56ZM101.56 29.16C101.56 24.2034 100.703 20.8163 98.9523 18.6666C97.1558 16.4609 94.5929 15.76 91.725 15.76V17.76C94.2821 17.76 96.1367 18.3766 97.4015 19.9296C98.712 21.5387 99.56 24.3516 99.56 29.16H101.56ZM91.725 15.76C88.8353 15.76 86.3105 16.5488 84.529 18.5332C82.7669 20.496 81.89 23.4558 81.89 27.455H83.89C83.89 23.7042 84.7181 21.3165 86.0173 19.8693C87.297 18.4437 89.1897 17.76 91.725 17.76V15.76ZM81.89 27.455V34.43H83.89V27.455H81.89ZM82.89 33.43H66.77V35.43H82.89V33.43ZM67.77 34.43V28.54H65.77V34.43H67.77ZM67.77 28.54C67.77 20.0141 69.9015 13.471 73.9397 9.06572C77.9646 4.67484 84.0202 2.26 92.19 2.26V0.259999C83.6198 0.259999 76.9654 2.80516 72.4653 7.71427C67.9785 12.609 65.77 19.7059 65.77 28.54H67.77ZM92.19 2.26C100.36 2.26 106.415 4.67484 110.44 9.06572C114.478 13.471 116.61 20.0141 116.61 28.54H118.61C118.61 19.7059 116.402 12.609 111.915 7.71427C107.415 2.80516 100.76 0.259999 92.19 0.259999V2.26ZM116.61 28.54V31.33H118.61V28.54H116.61ZM116.61 31.33C116.61 37.0464 115.694 41.5959 113.839 45.1032C111.997 48.5863 109.197 51.1053 105.292 52.7264L106.058 54.5736C110.368 52.7847 113.535 49.9562 115.607 46.0381C117.666 42.1441 118.61 37.2386 118.61 31.33H116.61ZM105.275 54.5665C113.279 58.0592 116.61 65.623 116.61 76.435H118.61C118.61 65.237 115.121 56.6808 106.075 52.7335L105.275 54.5665ZM116.61 76.435V84.96H118.61V76.435H116.61ZM116.61 84.96C116.61 93.4859 114.478 100.029 110.44 104.434C106.415 108.825 100.36 111.24 92.19 111.24V113.24C100.76 113.24 107.415 110.695 111.915 105.786C116.402 100.891 118.61 93.7941 118.61 84.96H116.61ZM92.19 111.24C84.0202 111.24 77.9646 108.825 73.9397 104.434C69.9015 100.029 67.77 93.4859 67.77 84.96H65.77C65.77 93.7941 67.9785 100.891 72.4653 105.786C76.9654 110.695 83.6198 113.24 92.19 113.24V111.24ZM67.77 84.96V75.97H65.77V84.96H67.77ZM66.77 76.97H82.89V74.97H66.77V76.97ZM81.89 75.97V86.045H83.89V75.97H81.89ZM81.89 86.045C81.89 90.0442 82.7669 93.004 84.529 94.9668C86.3105 96.9512 88.8353 97.74 91.725 97.74V95.74C89.1897 95.74 87.297 95.0563 86.0173 93.6307C84.7181 92.1835 83.89 89.7958 83.89 86.045H81.89ZM91.725 97.74C94.5922 97.74 97.1527 97.0396 98.949 94.8567C100.702 92.7265 101.56 89.377 101.56 84.495H99.56C99.56 89.223 98.713 91.996 97.4047 93.5858C96.1398 95.1229 94.2828 95.74 91.725 95.74V97.74ZM101.56 84.495V75.97H99.56V84.495H101.56ZM101.56 75.97C101.56 70.8641 100.705 67.1194 98.655 64.6549C96.5645 62.1418 93.4205 61.175 89.4 61.175V63.175C93.1295 63.175 95.5655 64.0682 97.1175 65.9339C98.7098 67.8481 99.56 71.0009 99.56 75.97H101.56ZM89.4 61.175H83.665V63.175H89.4V61.175ZM84.665 62.175V46.675H82.665V62.175H84.665ZM83.665 47.675H90.33V45.675H83.665V47.675ZM90.33 47.675C93.6319 47.675 96.5072 46.9525 98.5391 44.8982C100.567 42.8485 101.56 39.669 101.56 35.205H99.56C99.56 39.421 98.616 41.9765 97.1172 43.4918C95.6228 45.0025 93.3832 45.675 90.33 45.675V47.675Z" fill="url(#paint1_linear_29_101)" mask="url(#path-2-outside-1_29_101)"/>
</mask>
<g mask="url(#mask0_29_101)">
<g filter="url(#filter0_f_29_101)">
<ellipse cx="87.3334" cy="29.3215" rx="41.5" ry="46.2814" transform="rotate(-27.9017 87.3334 29.3215)" fill="#8503FF"/>
</g>
<g filter="url(#filter1_f_29_101)">
<ellipse cx="4.79263" cy="58.769" rx="50.1755" ry="19.9742" transform="rotate(-27.9017 4.79263 58.769)" fill="#B25398"/>
</g>
</g>
<defs>
<filter id="filter0_f_29_101" x="-5.26633" y="-65.9668" width="185.199" height="190.576" filterUnits="userSpaceOnUse" color-interpolation-filters="sRGB">
<feFlood flood-opacity="0" result="BackgroundImageFix"/>
<feBlend mode="normal" in="SourceGraphic" in2="BackgroundImageFix" result="shape"/>
<feGaussianBlur stdDeviation="25" result="effect1_foregroundBlur_29_101"/>
</filter>
<filter id="filter1_f_29_101" x="-70.5337" y="-0.60791" width="150.653" height="118.754" filterUnits="userSpaceOnUse" color-interpolation-filters="sRGB">
<feFlood flood-opacity="0" result="BackgroundImageFix"/>
<feBlend mode="normal" in="SourceGraphic" in2="BackgroundImageFix" result="shape"/>
<feGaussianBlur stdDeviation="15" result="effect1_foregroundBlur_29_101"/>
</filter>
<linearGradient id="paint0_linear_29_101" x1="61" y1="-3" x2="61" y2="111" gradientUnits="userSpaceOnUse">
<stop stop-color="#1E1E1E"/>
<stop offset="1" stop-opacity="0.1"/>
</linearGradient>
<linearGradient id="paint1_linear_29_101" x1="61.5" y1="-5.22959" x2="61.5" y2="111" gradientUnits="userSpaceOnUse">
<stop/>
<stop offset="1" stop-color="#666666" stop-opacity="0"/>
</linearGradient>
</defs>
</svg>
