<svg width="117" height="114" viewBox="0 0 117 114" fill="none" xmlns="http://www.w3.org/2000/svg">
<path d="M21.9999 27.455V86.045C21.9999 93.795 25.4099 96.74 30.8349 96.74C36.2599 96.74 39.6699 93.795 39.6699 86.045V27.455C39.6699 19.705 36.2599 16.76 30.8349 16.76C25.4099 16.76 21.9999 19.705 21.9999 27.455ZM4.94992 84.96V28.54C4.94992 11.18 14.0949 1.26 30.8349 1.26C47.5749 1.26 56.7199 11.18 56.7199 28.54V84.96C56.7199 102.32 47.5749 112.24 30.8349 112.24C14.0949 112.24 4.94992 102.32 4.94992 84.96ZM72.14 28.23V16.14C85.315 16.14 88.26 9.78499 90.895 2.49999H102.365V111H85.315V28.23H72.14Z" fill="url(#paint0_linear_29_94)"/>
<mask id="mask0_29_94" style="mask-type:alpha" maskUnits="userSpaceOnUse" x="3" y="0" width="101" height="114">
<mask id="path-2-outside-1_29_94" maskUnits="userSpaceOnUse" x="3" y="0" width="101" height="114" fill="black">
<rect fill="white" x="3" width="101" height="114"/>
<path d="M21.9999 27.455V86.045C21.9999 93.795 25.4099 96.74 30.8349 96.74C36.2599 96.74 39.6699 93.795 39.6699 86.045V27.455C39.6699 19.705 36.2599 16.76 30.8349 16.76C25.4099 16.76 21.9999 19.705 21.9999 27.455ZM4.94992 84.96V28.54C4.94992 11.18 14.0949 1.26 30.8349 1.26C47.5749 1.26 56.7199 11.18 56.7199 28.54V84.96C56.7199 102.32 47.5749 112.24 30.8349 112.24C14.0949 112.24 4.94992 102.32 4.94992 84.96ZM72.14 28.23V16.14C85.315 16.14 88.26 9.78499 90.895 2.49999H102.365V111H85.315V28.23H72.14Z"/>
</mask>
<path d="M21.9999 27.455V86.045C21.9999 93.795 25.4099 96.74 30.8349 96.74C36.2599 96.74 39.6699 93.795 39.6699 86.045V27.455C39.6699 19.705 36.2599 16.76 30.8349 16.76C25.4099 16.76 21.9999 19.705 21.9999 27.455ZM4.94992 84.96V28.54C4.94992 11.18 14.0949 1.26 30.8349 1.26C47.5749 1.26 56.7199 11.18 56.7199 28.54V84.96C56.7199 102.32 47.5749 112.24 30.8349 112.24C14.0949 112.24 4.94992 102.32 4.94992 84.96ZM72.14 28.23V16.14C85.315 16.14 88.26 9.78499 90.895 2.49999H102.365V111H85.315V28.23H72.14Z" fill="#D9D9D9"/>
<path d="M20.9999 27.455V86.045H22.9999V27.455H20.9999ZM20.9999 86.045C20.9999 90.0442 21.8769 93.004 23.6389 94.9668C25.4204 96.9512 27.9452 97.74 30.8349 97.74V95.74C28.2996 95.74 26.4069 95.0563 25.1272 93.6307C23.828 92.1835 22.9999 89.7958 22.9999 86.045H20.9999ZM30.8349 97.74C33.7246 97.74 36.2494 96.9512 38.0309 94.9668C39.793 93.004 40.6699 90.0442 40.6699 86.045H38.6699C38.6699 89.7958 37.8419 92.1835 36.5427 93.6307C35.2629 95.0563 33.3702 95.74 30.8349 95.74V97.74ZM40.6699 86.045V27.455H38.6699V86.045H40.6699ZM40.6699 27.455C40.6699 23.4558 39.793 20.496 38.0309 18.5332C36.2494 16.5488 33.7246 15.76 30.8349 15.76V17.76C33.3702 17.76 35.2629 18.4437 36.5427 19.8693C37.8419 21.3165 38.6699 23.7042 38.6699 27.455H40.6699ZM30.8349 15.76C27.9452 15.76 25.4204 16.5488 23.6389 18.5332C21.8769 20.496 20.9999 23.4558 20.9999 27.455H22.9999C22.9999 23.7042 23.828 21.3165 25.1272 19.8693C26.4069 18.4437 28.2996 17.76 30.8349 17.76V15.76ZM5.94992 84.96V28.54H3.94992V84.96H5.94992ZM5.94992 28.54C5.94992 20.0269 8.19107 13.4846 12.3429 9.07555C16.486 4.6758 22.6641 2.26 30.8349 2.26V0.259999C22.2657 0.259999 15.5013 2.8042 10.8869 7.70444C6.28127 12.5954 3.94992 19.6931 3.94992 28.54H5.94992ZM30.8349 2.26C39.0057 2.26 45.1838 4.6758 49.3269 9.07555C53.4788 13.4846 55.7199 20.0269 55.7199 28.54H57.7199C57.7199 19.6931 55.3886 12.5954 50.7829 7.70444C46.1685 2.8042 39.4041 0.259999 30.8349 0.259999V2.26ZM55.7199 28.54V84.96H57.7199V28.54H55.7199ZM55.7199 84.96C55.7199 93.4731 53.4788 100.015 49.3269 104.424C45.1838 108.824 39.0057 111.24 30.8349 111.24V113.24C39.4041 113.24 46.1685 110.696 50.7829 105.796C55.3886 100.905 57.7199 93.8069 57.7199 84.96H55.7199ZM30.8349 111.24C22.6641 111.24 16.486 108.824 12.3429 104.424C8.19107 100.015 5.94992 93.4731 5.94992 84.96H3.94992C3.94992 93.8069 6.28127 100.905 10.8869 105.796C15.5013 110.696 22.2657 113.24 30.8349 113.24V111.24ZM72.14 28.23H71.14V29.23H72.14V28.23ZM72.14 16.14V15.14H71.14V16.14H72.14ZM90.895 2.49999V1.49999H90.1933L89.9546 2.15986L90.895 2.49999ZM102.365 2.49999H103.365V1.49999H102.365V2.49999ZM102.365 111V112H103.365V111H102.365ZM85.315 111H84.315V112H85.315V111ZM85.315 28.23H86.315V27.23H85.315V28.23ZM73.14 28.23V16.14H71.14V28.23H73.14ZM72.14 17.14C78.8924 17.14 83.1956 15.5074 86.1476 12.7873C89.0596 10.1041 90.521 6.47411 91.8354 2.84013L89.9546 2.15986C88.634 5.81087 87.3054 9.00093 84.7924 11.3165C82.3194 13.5951 78.5626 15.14 72.14 15.14V17.14ZM90.895 3.49999H102.365V1.49999H90.895V3.49999ZM101.365 2.49999V111H103.365V2.49999H101.365ZM102.365 110H85.315V112H102.365V110ZM86.315 111V28.23H84.315V111H86.315ZM85.315 27.23H72.14V29.23H85.315V27.23Z" fill="url(#paint1_linear_29_94)" mask="url(#path-2-outside-1_29_94)"/>
</mask>
<g mask="url(#mask0_29_94)">
<g filter="url(#filter0_f_29_94)">
<ellipse cx="84.3334" cy="29.3215" rx="41.5" ry="46.2814" transform="rotate(-27.9017 84.3334 29.3215)" fill="#8503FF"/>
</g>
<g filter="url(#filter1_f_29_94)">
<ellipse cx="1.79263" cy="58.769" rx="50.1755" ry="19.9742" transform="rotate(-27.9017 1.79263 58.769)" fill="#B25398"/>
</g>
</g>
<defs>
<filter id="filter0_f_29_94" x="-8.26633" y="-65.9668" width="185.199" height="190.576" filterUnits="userSpaceOnUse" color-interpolation-filters="sRGB">
<feFlood flood-opacity="0" result="BackgroundImageFix"/>
<feBlend mode="normal" in="SourceGraphic" in2="BackgroundImageFix" result="shape"/>
<feGaussianBlur stdDeviation="25" result="effect1_foregroundBlur_29_94"/>
</filter>
<filter id="filter1_f_29_94" x="-73.5337" y="-0.60791" width="150.653" height="118.754" filterUnits="userSpaceOnUse" color-interpolation-filters="sRGB">
<feFlood flood-opacity="0" result="BackgroundImageFix"/>
<feBlend mode="normal" in="SourceGraphic" in2="BackgroundImageFix" result="shape"/>
<feGaussianBlur stdDeviation="15" result="effect1_foregroundBlur_29_94"/>
</filter>
<linearGradient id="paint0_linear_29_94" x1="58.5" y1="-49.7194" x2="58.5" y2="95.9847" gradientUnits="userSpaceOnUse">
<stop stop-color="#3C3C3C"/>
<stop offset="1" stop-opacity="0.05"/>
</linearGradient>
<linearGradient id="paint1_linear_29_94" x1="58.5" y1="-5.22959" x2="58.5" y2="111" gradientUnits="userSpaceOnUse">
<stop/>
<stop offset="1" stop-color="#666666" stop-opacity="0"/>
</linearGradient>
</defs>
</svg>
